<svg width="28" height="23" viewBox="0 0 28 23" fill="none" xmlns="http://www.w3.org/2000/svg">
<path d="M26.8443 10.9368C26.8504 14.1423 26.8576 17.3477 26.8628 20.5531C26.8641 21.7169 26.5371 22.033 25.3444 22.0345C18.7796 22.0448 12.2147 22.0541 5.64983 22.0633C5.584 22.0633 5.51916 22.0633 5.45332 22.0643C5.16442 22.0687 4.87464 22.0653 4.8163 21.6962C4.75883 21.3338 5.03249 21.2315 5.30019 21.134C5.92747 20.9046 6.55664 20.6801 7.18392 20.4507C8.69926 19.8972 10.2165 19.3505 11.7271 18.7854C12.5392 18.4814 12.4206 19.12 11.8895 18.4335C11.6514 18.1255 11.3965 17.8317 11.1554 17.5265C10.9664 17.2869 10.8543 17.0349 11.0141 16.726C11.178 16.4094 11.4555 16.3778 11.7628 16.395C13.887 16.5118 16.0103 16.6275 18.1346 16.7443C18.2652 16.7511 15.1693 20.9464 15.6114 17.5931C16.5363 17.6301 10.4955 7.55415 10.4414 6.64085C10.3332 4.80845 19.9671 10.4794 19.8559 8.64698C19.8307 8.22902 19.8232 7.81036 19.8049 7.39154C19.7931 7.12941 19.8729 6.91311 20.1195 6.78533C20.3749 6.65382 20.6311 6.67311 20.8594 6.84084C21.2141 7.10036 21.5518 7.38089 21.9056 7.64136C22.5829 8.13961 23.1983 7.98158 23.4908 7.20974C24.2609 5.17876 25.0095 3.13876 25.7787 1.1068C25.9004 0.783828 25.9216 0.2844 26.4584 0.390043C26.9502 0.48728 26.8206 0.939661 26.8225 1.27318C26.8363 4.49514 26.8393 7.71501 26.8443 10.9368Z" fill="#ec981a"/>
<path d="M3.83686 11.9585C4.3818 12.4679 4.95652 12.7715 5.64011 12.8787C6.90159 13.0772 8.16192 13.2771 9.42199 13.4904C9.98274 13.5855 10.411 13.4341 10.624 12.891C10.8304 12.3606 10.547 12.0234 10.1167 11.7546C8.04194 10.4569 5.97163 9.15155 3.89117 7.86049C3.51319 7.62662 3.09098 7.48583 2.66509 7.77186C2.19281 8.08741 2.20663 8.54956 2.35098 9.00963C2.6902 10.0936 2.86173 11.2672 3.83818 11.9596L3.83686 11.9585Z" fill="#ec981a"/>
</svg>
