<svg width="256" height="256" viewBox="0 0 256 256" fill="none" xmlns="http://www.w3.org/2000/svg">
<circle cx="128" cy="128" r="128" fill="#231F20"/>
<path fill-rule="evenodd" clip-rule="evenodd" d="M128 256C198.692 256 256 198.692 256 128C256 57.3076 198.692 0 128 0C57.3076 0 0 57.3076 0 128C0 198.692 57.3076 256 128 256ZM128.355 240.355C190.211 240.355 240.355 190.211 240.355 128.355C240.355 66.4996 190.211 16.3555 128.355 16.3555C66.4996 16.3555 16.3555 66.4996 16.3555 128.355C16.3555 190.211 66.4996 240.355 128.355 240.355Z" fill="#EFDEBF"/>
<path fill-rule="evenodd" clip-rule="evenodd" d="M128.355 158.578C145.046 158.578 158.577 145.047 158.577 128.356C158.577 111.665 145.046 98.1338 128.355 98.1338C111.664 98.1338 98.1328 111.665 98.1328 128.356C98.1328 145.047 111.664 158.578 128.355 158.578ZM128 145.778C137.819 145.778 145.778 137.819 145.778 128C145.778 118.182 137.819 110.223 128 110.223C118.182 110.223 110.223 118.182 110.223 128C110.223 137.819 118.182 145.778 128 145.778Z" fill="#EFDEBF"/>
<path d="M194.488 65.0665L163.555 95.9998C163.555 95.9998 176.287 104.251 184.532 109.866C192.778 115.482 206.932 125.511 206.932 125.511H235.021C235.021 94.7909 218.192 68.622 209.777 59.3776C204.941 57.1021 197.57 62.2221 194.488 65.0665Z" fill="#EFDEBF"/>
<path d="M190.651 62.009L159.645 92.8695C159.645 92.8695 153.956 89.9556 147.201 88.1779C140.445 86.4001 130.236 86.0445 130.236 86.0445L130.302 21.3335C161.022 21.4058 187.151 38.297 196.376 46.7336C198.64 51.5745 193.503 58.9343 190.651 62.009Z" fill="#EFDEBF"/>
<path d="M194.488 191.289L163.555 160.356C163.555 160.356 176.287 152.105 184.532 146.489C192.778 140.873 206.932 130.845 206.932 130.845H235.021C235.021 161.565 218.192 187.733 209.777 196.978C204.941 199.253 197.57 194.133 194.488 191.289Z" fill="#EFDEBF"/>
<path d="M190.651 194.346L159.645 163.486C159.645 163.486 153.956 166.4 147.201 168.178C140.445 169.955 130.236 170.311 130.236 170.311L130.302 235.022C161.022 234.95 187.151 218.058 196.376 209.622C198.64 204.781 193.503 197.421 190.651 194.346Z" fill="#EFDEBF"/>
<path d="M61.8674 65.0665L92.8008 95.9998C92.8008 95.9998 80.0685 104.251 71.823 109.866C63.5775 115.482 49.423 125.511 49.423 125.511H21.3341C21.3341 94.7909 38.1637 68.622 46.5786 59.3776C51.4141 57.1021 58.786 62.2221 61.8674 65.0665Z" fill="#EFDEBF"/>
<path d="M65.7046 62.009L96.7107 92.8695C96.7107 92.8695 102.399 89.9556 109.155 88.1779C115.91 86.4001 126.119 86.0445 126.119 86.0445L126.053 21.3335C95.3334 21.4058 69.2043 38.297 59.9797 46.7336C57.7155 51.5745 62.8529 58.9343 65.7046 62.009Z" fill="#EFDEBF"/>
<path d="M61.8674 191.289L92.8008 160.356C92.8008 160.356 80.0685 152.105 71.823 146.489C63.5775 140.873 49.423 130.845 49.423 130.845H21.3341C21.3341 161.565 38.1637 187.733 46.5786 196.978C51.4141 199.253 58.786 194.133 61.8674 191.289Z" fill="#EFDEBF"/>
<path d="M65.7046 194.346L96.7107 163.486C96.7107 163.486 102.399 166.4 109.155 168.178C115.91 169.955 126.119 170.311 126.119 170.311L126.053 235.022C95.3334 234.95 69.2043 218.058 59.9797 209.622C57.7155 204.781 62.8529 197.421 65.7046 194.346Z" fill="#EFDEBF"/>
</svg>
